<svg width="42" height="42" viewBox="0 0 42 42" fill="none" xmlns="http://www.w3.org/2000/svg">
<path fill-rule="evenodd" clip-rule="evenodd" d="M21 41C32.0457 41 41 32.0457 41 21C41 9.9543 32.0457 1 21 1C9.9543 1 1 9.9543 1 21C1 32.0457 9.9543 41 21 41Z" stroke="#ECECEC"/>
<path fill-rule="evenodd" clip-rule="evenodd" d="M25.5146 15.1583C24.9173 15.1583 24.4321 15.6427 24.4321 16.2416C24.4321 16.8398 24.9173 17.325 25.5146 17.325C26.1126 17.325 26.5978 16.8398 26.5978 16.2416C26.5978 15.6427 26.1126 15.1583 25.5146 15.1583ZM20.9999 23.9787C19.3586 23.9787 18.0226 22.6426 18.0226 20.9996C18.0226 19.3574 19.3586 18.0221 20.9999 18.0221C22.642 18.0221 23.978 19.3574 23.978 20.9996C23.978 22.6426 22.642 23.9787 20.9999 23.9787ZM20.9999 16.3456C18.4349 16.3456 16.3478 18.4337 16.3478 20.9996C16.3478 23.5663 18.4349 25.6544 20.9999 25.6544C23.5657 25.6544 25.6528 23.5663 25.6528 20.9996C25.6528 18.4337 23.5657 16.3456 20.9999 16.3456ZM28.3045 23.5426C28.2963 24.1031 28.2742 24.7012 28.1687 25.2674C27.8823 26.8081 27.0077 27.745 25.4957 28.132C24.8011 28.3096 24.0615 28.3153 23.2793 28.3202H23.2711C22.8907 28.3227 22.5004 28.3235 22.0782 28.3235C21.0162 28.3235 19.9346 28.3161 18.8874 28.3079L18.1846 28.303C17.6675 28.2989 17.0604 28.2752 16.4746 28.1263C15.3291 27.835 14.5502 27.1935 14.0921 26.165C13.8024 25.5113 13.737 24.7888 13.7116 24.1677C13.7059 24.0335 13.6961 23.9067 13.6854 23.784L13.6756 23.6613V18.3993C13.6863 18.3461 13.6993 18.2716 13.7018 18.1857C13.7198 17.5696 13.7452 17.0165 13.8777 16.4879C14.1714 15.3212 14.826 14.5324 15.8798 14.0766C16.5204 13.7993 17.2289 13.7371 17.8377 13.7117C17.9718 13.706 18.0995 13.6953 18.2222 13.6855L18.3441 13.6757H23.609C23.6524 13.6847 23.7072 13.6929 23.7702 13.6986C23.9486 13.7142 24.1253 13.7248 24.2955 13.7346C24.6342 13.7551 24.9533 13.7739 25.2486 13.8287C26.0226 13.9744 26.6543 14.2689 27.1239 14.7034C27.5952 15.1411 27.9331 15.7483 28.1278 16.5092C28.3021 17.1908 28.3086 17.9182 28.316 18.6865V18.7528C28.3307 20.3622 28.3274 21.9741 28.3045 23.5426ZM29.9916 18.738L29.9908 18.6718C29.9834 17.8364 29.9752 16.9723 29.751 16.0935C29.202 13.9457 27.7514 12.5932 25.5571 12.1825C25.1578 12.1072 24.77 12.0843 24.3945 12.0622C24.2325 12.0532 24.0787 12.0434 23.9273 12.0303C23.9191 12.0286 23.9118 12.027 23.9036 12.0254C23.8815 12.0221 23.8594 12.0172 23.8357 12.0131L23.7637 12H18.2811L18.2508 12.0025C18.1952 12.0065 18.1387 12.0106 18.0839 12.0155C17.9726 12.0245 17.8679 12.0335 17.7697 12.0376C17.0514 12.0671 16.1121 12.1506 15.2146 12.5384C13.6715 13.2061 12.6758 14.3974 12.2536 16.0788C12.0835 16.7563 12.0491 17.4191 12.0286 18.0933C12.0229 18.1186 12.018 18.1432 12.0131 18.1677L12 18.2406V23.7243L12.0025 23.7545C12.0065 23.811 12.0115 23.8666 12.0164 23.9223C12.0254 24.0327 12.0335 24.1366 12.0376 24.2356C12.0671 24.9696 12.1546 25.9285 12.5621 26.8458C13.2322 28.3529 14.4103 29.3307 16.0622 29.7496C16.8264 29.9444 17.5906 29.9738 18.1715 29.9787L18.8751 29.9836C19.9248 29.991 21.0097 30 22.0782 30C22.5045 30 22.898 29.9984 23.2818 29.9959H23.2899C24.1392 29.9902 25.0179 29.9845 25.9105 29.7554C28.0582 29.2055 29.409 27.7597 29.8157 25.5743C29.9441 24.882 29.9703 24.171 29.9793 23.5663C30.0014 21.9847 30.0063 20.3606 29.9916 18.738Z" fill="#9A9A9A"/>
</svg>
