<svg width="42" height="42" viewBox="0 0 42 42" fill="none" xmlns="http://www.w3.org/2000/svg">
<path fill-rule="evenodd" clip-rule="evenodd" d="M21.888 20.111V15.888C21.888 15.397 21.49 15 21 15C20.508 15 20.111 15.397 20.111 15.888V20.111H15.888C15.398 20.111 15 20.508 15 21C15 21.491 15.398 21.888 15.888 21.888H20.111V26.11C20.111 26.601 20.508 27 21 27C21.49 27 21.888 26.601 21.888 26.11V21.888H26.111C26.601 21.888 27 21.491 27 21C27 20.508 26.601 20.111 26.111 20.111H21.888Z" fill="#9A9A9A"/>
<path fill-rule="evenodd" clip-rule="evenodd" d="M21 41C32.0457 41 41 32.0457 41 21C41 9.9543 32.0457 1 21 1C9.9543 1 1 9.9543 1 21C1 32.0457 9.9543 41 21 41Z" stroke="#ECECEC"/>
</svg>
