<svg width="12" height="72" viewBox="0 0 12 72" fill="none" xmlns="http://www.w3.org/2000/svg">
<path opacity="0.4" fill-rule="evenodd" clip-rule="evenodd" d="M6 11C8.76142 11 11 8.76142 11 6C11 3.23858 8.76142 1 6 1C3.23858 1 1 3.23858 1 6C1 8.76142 3.23858 11 6 11Z" stroke="#4F4F4F"/>
<path fill-rule="evenodd" clip-rule="evenodd" d="M6 31C8.76142 31 11 28.7614 11 26C11 23.2386 8.76142 21 6 21C3.23858 21 1 23.2386 1 26C1 28.7614 3.23858 31 6 31Z" fill="#4F4F4F"/>
<path opacity="0.4" fill-rule="evenodd" clip-rule="evenodd" d="M6 51C8.76142 51 11 48.7614 11 46C11 43.2386 8.76142 41 6 41C3.23858 41 1 43.2386 1 46C1 48.7614 3.23858 51 6 51Z" stroke="#4F4F4F"/>
<path opacity="0.4" fill-rule="evenodd" clip-rule="evenodd" d="M6 71C8.76142 71 11 68.7614 11 66C11 63.2386 8.76142 61 6 61C3.23858 61 1 63.2386 1 66C1 68.7614 3.23858 71 6 71Z" stroke="#4F4F4F"/>
</svg>
