<svg width="42" height="42" viewBox="0 0 42 42" fill="none" xmlns="http://www.w3.org/2000/svg">
<path fill-rule="evenodd" clip-rule="evenodd" d="M21 41C32.0457 41 41 32.0457 41 21C41 9.9543 32.0457 1 21 1C9.9543 1 1 9.9543 1 21C1 32.0457 9.9543 41 21 41Z" stroke="#ECECEC"/>
<path fill-rule="evenodd" clip-rule="evenodd" d="M27.9966 17.2137C28.7169 16.7763 29.2699 16.0836 29.5305 15.2584C28.8564 15.6632 28.1099 15.9574 27.3157 16.116C26.6795 15.429 25.7727 15 24.7699 15C22.8437 15 21.2821 16.5823 21.2821 18.5342C21.2821 18.8111 21.3128 19.0809 21.3723 19.3395C18.4738 19.1924 15.9031 17.7852 14.1835 15.6468C13.8833 16.1688 13.711 16.7759 13.711 17.4236C13.711 18.6497 14.3267 19.7313 15.2625 20.3653C14.6911 20.3469 14.153 20.1883 13.6828 19.9236C13.6824 19.9382 13.6824 19.9528 13.6824 19.9678C13.6824 21.6804 14.885 23.1087 16.4802 23.4334C16.1879 23.5143 15.8797 23.5576 15.5613 23.5576C15.3368 23.5576 15.1185 23.5355 14.9051 23.4941C15.349 24.8981 16.6374 25.9201 18.1634 25.9484C16.9695 26.8964 15.4659 27.4615 13.8319 27.4615C13.5505 27.4615 13.2729 27.4447 13 27.4116C14.5433 28.4147 16.3762 29 18.3465 29C24.7616 29 28.2699 23.6141 28.2699 18.9435C28.2699 18.7907 28.2666 18.6381 28.2597 18.4862C28.941 17.9885 29.5321 17.3661 30 16.657C29.3741 16.9382 28.7023 17.1281 27.9966 17.2137Z" fill="#9A9A9A"/>
</svg>
